999
"DXF R12 Output" (www.mydxf.blogspot.com)
 0 
SECTION
 2 
HEADER
 9 
$ACADVER
 1 
AC1009
 9 
$EXTMIN
 10 
 0 
 20 
 0 
 9 
$EXTMAX
 10 
 8.5 
 20 
 11 
 0 
ENDSEC
 0 
SECTION
 2 
ENTITIES
0
LINE
8
Layer 1
10
58.499474
20
17.601745
11
57.444803
21
20.686529
0
LINE
8
Layer 1
10
57.444803
20
20.686529
11
56.969933
21
21.817807
0
LINE
8
Layer 1
10
56.969933
20
21.817807
11
56.262918
21
22.718940
0
LINE
8
Layer 1
10
56.262918
20
22.718940
11
55.351501
21
23.431121
0
LINE
8
Layer 1
10
55.351501
20
23.431121
11
54.263425
21
23.995544
0
LINE
8
Layer 1
10
54.263425
20
23.995544
11
51.668276
21
24.845896
0
LINE
8
Layer 1
10
51.668276
20
24.845896
11
48.699422
21
25.599549
0
LINE
8
Layer 1
10
48.699422
20
25.599549
11
48.153771
21
25.261085
0
LINE
8
Layer 1
10
48.153771
20
25.261085
11
47.487197
21
25.366004
0
LINE
8
Layer 1
10
47.487197
20
25.366004
11
43.522709
21
25.801399
0
LINE
8
Layer 1
10
43.522709
20
25.801399
11
39.223359
21
25.790310
0
LINE
8
Layer 1
10
39.223359
20
25.790310
11
38.601926
21
26.298433
0
LINE
8
Layer 1
10
38.601926
20
26.298433
11
30.500000
21
26.300000
0
LINE
8
Layer 1
10
30.500000
20
26.300000
11
12.000000
21
26.300000
0
LINE
8
Layer 1
10
12.000000
20
26.300000
11
10.997104
21
26.300000
0
LINE
8
Layer 1
10
10.997104
20
26.300000
11
8.880016
21
26.197373
0
LINE
8
Layer 1
10
8.880016
20
26.197373
11
7.087247
21
25.968186
0
LINE
8
Layer 1
10
7.087247
20
25.968186
11
5.591449
21
25.642202
0
LINE
8
Layer 1
10
5.591449
20
25.642202
11
4.365272
21
25.235515
0
LINE
8
Layer 1
10
4.365272
20
25.235515
11
3.381368
21
24.764218
0
LINE
8
Layer 1
10
3.381368
20
24.764218
11
2.612389
21
24.244405
0
LINE
8
Layer 1
10
2.612389
20
24.244405
11
2.030987
21
23.692170
0
LINE
8
Layer 1
10
2.030987
20
23.692170
11
1.321514
21
22.554811
0
LINE
8
Layer 1
10
1.321514
20
22.554811
11
1.034163
21
21.480892
0
LINE
8
Layer 1
10
1.034163
20
21.480892
11
0.850669
21
20.038376
0
LINE
8
Layer 1
10
0.850669
20
20.038376
11
0.345257
21
19.561940
0
LINE
8
Layer 1
10
0.345257
20
19.561940
11
0.000000
21
19.403264
0
LINE
8
Layer 1
10
0.000000
20
19.403264
11
0.000000
21
6.898770
0
LINE
8
Layer 1
10
0.000000
20
6.898770
11
0.345257
21
6.740094
0
LINE
8
Layer 1
10
0.345257
20
6.740094
11
0.850669
21
6.263657
0
LINE
8
Layer 1
10
0.850669
20
6.263657
11
1.034163
21
4.821141
0
LINE
8
Layer 1
10
1.034163
20
4.821141
11
1.321514
21
3.747222
0
LINE
8
Layer 1
10
1.321514
20
3.747222
11
2.030987
21
2.609863
0
LINE
8
Layer 1
10
2.030987
20
2.609863
11
2.612389
21
2.057628
0
LINE
8
Layer 1
10
2.612389
20
2.057628
11
3.381368
21
1.537816
0
LINE
8
Layer 1
10
3.381368
20
1.537816
11
4.365272
21
1.066519
0
LINE
8
Layer 1
10
4.365272
20
1.066519
11
5.591449
21
0.659831
0
LINE
8
Layer 1
10
5.591449
20
0.659831
11
7.087247
21
0.333848
0
LINE
8
Layer 1
10
7.087247
20
0.333848
11
8.880016
21
0.104661
0
LINE
8
Layer 1
10
8.880016
20
0.104661
11
13.465859
21
0.001056
0
LINE
8
Layer 1
10
13.465859
20
0.001056
11
38.601926
21
0.003556
0
LINE
8
Layer 1
10
38.601926
20
0.003556
11
39.223359
21
0.511679
0
LINE
8
Layer 1
10
39.223359
20
0.511679
11
43.522710
21
0.500591
0
LINE
8
Layer 1
10
43.522710
20
0.500591
11
47.487197
21
0.935984
0
LINE
8
Layer 1
10
47.487197
20
0.935984
11
48.153771
21
1.040904
0
LINE
8
Layer 1
10
48.153771
20
1.040904
11
48.699422
21
0.702439
0
LINE
8
Layer 1
10
48.699422
20
0.702439
11
51.668276
21
1.456092
0
LINE
8
Layer 1
10
51.668276
20
1.456092
11
54.263425
21
2.306444
0
LINE
8
Layer 1
10
54.263425
20
2.306444
11
55.351501
21
2.870868
0
LINE
8
Layer 1
10
55.351501
20
2.870868
11
56.262918
21
3.583049
0
LINE
8
Layer 1
10
56.262918
20
3.583049
11
56.969933
21
4.484181
0
LINE
8
Layer 1
10
56.969933
20
4.484181
11
57.444803
21
5.615460
0
LINE
8
Layer 1
10
57.444803
20
5.615460
11
58.499474
21
8.505939
0
LINE
8
Layer 1
10
58.499474
20
8.505939
11
58.499474
21
17.601745
0
LINE
8
Layer 1
10
30.311001
20
4.076000
11
29.745316
21
3.841685
0
LINE
8
Layer 1
10
29.745316
20
3.841685
11
29.511001
21
3.276000
0
LINE
8
Layer 1
10
29.511001
20
3.276000
11
29.745316
21
2.710315
0
LINE
8
Layer 1
10
29.745316
20
2.710315
11
30.311001
21
2.476000
0
LINE
8
Layer 1
10
30.311001
20
2.476000
11
30.876686
21
2.710315
0
LINE
8
Layer 1
10
30.876686
20
2.710315
11
31.111001
21
3.276000
0
LINE
8
Layer 1
10
31.111001
20
3.276000
11
30.876686
21
3.841685
0
LINE
8
Layer 1
10
30.876686
20
3.841685
11
30.311001
21
4.076000
0
LINE
8
Layer 1
10
30.311001
20
4.076000
11
30.311001
21
4.076000
0
LINE
8
Layer 1
10
53.875000
20
22.888000
11
53.430544
21
22.753176
0
LINE
8
Layer 1
10
53.430544
20
22.753176
11
53.135896
21
22.394147
0
LINE
8
Layer 1
10
53.135896
20
22.394147
11
53.090372
21
21.931928
0
LINE
8
Layer 1
10
53.090372
20
21.931928
11
53.309315
21
21.522315
0
LINE
8
Layer 1
10
53.309315
20
21.522315
11
53.718928
21
21.303372
0
LINE
8
Layer 1
10
53.718928
20
21.303372
11
54.181147
21
21.348896
0
LINE
8
Layer 1
10
54.181147
20
21.348896
11
54.540176
21
21.643544
0
LINE
8
Layer 1
10
54.540176
20
21.643544
11
54.675000
21
22.088000
0
LINE
8
Layer 1
10
54.675000
20
22.088000
11
54.440685
21
22.653686
0
LINE
8
Layer 1
10
54.440685
20
22.653686
11
53.875000
21
22.888000
0
LINE
8
Layer 1
10
53.875000
20
22.888000
11
53.875000
21
22.888000
0
LINE
8
Layer 1
10
53.015499
20
8.251599
11
52.321036
21
8.040936
0
LINE
8
Layer 1
10
52.321036
20
8.040936
11
51.860650
21
7.479953
0
LINE
8
Layer 1
10
51.860650
20
7.479953
11
51.789517
21
6.757736
0
LINE
8
Layer 1
10
51.789517
20
6.757736
11
52.131616
21
6.117716
0
LINE
8
Layer 1
10
52.131616
20
6.117716
11
52.771636
21
5.775617
0
LINE
8
Layer 1
10
52.771636
20
5.775617
11
53.493853
21
5.846750
0
LINE
8
Layer 1
10
53.493853
20
5.846750
11
54.054836
21
6.307136
0
LINE
8
Layer 1
10
54.054836
20
6.307136
11
54.265499
21
7.001599
0
LINE
8
Layer 1
10
54.265499
20
7.001599
11
54.170348
21
7.479953
0
LINE
8
Layer 1
10
54.170348
20
7.479953
11
53.899382
21
7.885482
0
LINE
8
Layer 1
10
53.899382
20
7.885482
11
53.493853
21
8.156448
0
LINE
8
Layer 1
10
53.493853
20
8.156448
11
53.015499
21
8.251599
0
LINE
8
Layer 1
10
53.015499
20
8.251599
11
53.015499
21
8.251599
0
LINE
8
Layer 1
10
53.065498
20
20.332000
11
52.371035
21
20.121337
0
LINE
8
Layer 1
10
52.371035
20
20.121337
11
51.910649
21
19.560354
0
LINE
8
Layer 1
10
51.910649
20
19.560354
11
51.839516
21
18.838137
0
LINE
8
Layer 1
10
51.839516
20
18.838137
11
52.181615
21
18.198117
0
LINE
8
Layer 1
10
52.181615
20
18.198117
11
52.821635
21
17.856018
0
LINE
8
Layer 1
10
52.821635
20
17.856018
11
53.543852
21
17.927151
0
LINE
8
Layer 1
10
53.543852
20
17.927151
11
54.104835
21
18.387537
0
LINE
8
Layer 1
10
54.104835
20
18.387537
11
54.315498
21
19.082000
0
LINE
8
Layer 1
10
54.315498
20
19.082000
11
54.220347
21
19.560354
0
LINE
8
Layer 1
10
54.220347
20
19.560354
11
53.949381
21
19.965884
0
LINE
8
Layer 1
10
53.949381
20
19.965884
11
53.543852
21
20.236850
0
LINE
8
Layer 1
10
53.543852
20
20.236850
11
53.065498
21
20.332000
0
LINE
8
Layer 1
10
53.065498
20
20.332000
11
53.065498
21
20.332000
0
LINE
8
Layer 1
10
31.311501
20
14.230000
11
30.617038
21
14.019337
0
LINE
8
Layer 1
10
30.617038
20
14.019337
11
30.156652
21
13.458354
0
LINE
8
Layer 1
10
30.156652
20
13.458354
11
30.085519
21
12.736137
0
LINE
8
Layer 1
10
30.085519
20
12.736137
11
30.427618
21
12.096117
0
LINE
8
Layer 1
10
30.427618
20
12.096117
11
31.067638
21
11.754018
0
LINE
8
Layer 1
10
31.067638
20
11.754018
11
31.789855
21
11.825151
0
LINE
8
Layer 1
10
31.789855
20
11.825151
11
32.350838
21
12.285537
0
LINE
8
Layer 1
10
32.350838
20
12.285537
11
32.561501
21
12.980000
0
LINE
8
Layer 1
10
32.561501
20
12.980000
11
32.466350
21
13.458354
0
LINE
8
Layer 1
10
32.466350
20
13.458354
11
32.195384
21
13.863883
0
LINE
8
Layer 1
10
32.195384
20
13.863883
11
31.789855
21
14.134849
0
LINE
8
Layer 1
10
31.789855
20
14.134849
11
31.311501
21
14.230000
0
LINE
8
Layer 1
10
31.311501
20
14.230000
11
31.311501
21
14.230000
0
LINE
8
Layer 1
10
12.000000
20
25.300000
11
12.000000
21
2.300000
0
LINE
8
Layer 1
10
12.000000
20
2.300000
11
28.500000
21
2.300000
0
LINE
8
Layer 1
10
28.500000
20
2.300000
11
28.500000
21
16.300000
0
LINE
8
Layer 1
10
28.500000
20
16.300000
11
30.500000
21
16.300000
0
LINE
8
Layer 1
10
30.500000
20
16.300000
11
30.500000
21
23.800000
0
LINE
8
Layer 1
10
30.500000
20
23.800000
11
33.500000
21
23.800000
0
LINE
8
Layer 1
10
33.500000
20
23.800000
11
33.500000
21
1.800000
0
LINE
8
Layer 1
10
33.500000
20
1.800000
11
51.000000
21
1.800000
0
LINE
8
Layer 1
10
51.000000
20
1.800000
11
51.000000
21
23.800000
0
LINE
8
Layer 1
10
51.000000
20
23.800000
11
36.000000
21
23.800000
0
LINE
8
Layer 1
10
36.000000
20
23.800000
11
36.000000
21
25.300000
0
LINE
8
Layer 1
10
36.000000
20
25.300000
11
30.500000
21
25.300000
0
LINE
8
Layer 1
10
30.500000
20
25.300000
11
12.000000
21
25.300000
 0 
ENDSEC
 0 
EOF