0
SECTION
2
HEADER
9
$INSUNITS
70
4
9
$ACADVER
1
AC1014
9
$HANDSEED
5
FFFF
0
ENDSEC
0
SECTION
2
TABLES
0
TABLE
2
VPORT
5
8
100
AcDbSymbolTable
0
ENDTAB
0
TABLE
2
LTYPE
5
5
100
AcDbSymbolTable
0
LTYPE
5
14
100
AcDbSymbolTableRecord
100
AcDbLinetypeTableRecord
2
BYBLOCK
70
0
0
LTYPE
5
15
100
AcDbSymbolTableRecord
100
AcDbLinetypeTableRecord
2
BYLAYER
70
0
0
ENDTAB
0
TABLE
2
LAYER
5
2
100
AcDbSymbolTable
70
2
0
LAYER
5
50
100
AcDbSymbolTableRecord
100
AcDbLayerTableRecord
2
0
70
0
6
CONTINUOUS
0
ENDTAB
0
TABLE
2
STYLE
5
3
100
AcDbSymbolTable
70
1
0
STYLE
5
11
100
AcDbSymbolTableRecord
100
AcDbTextStyleTableRecord
2
STANDARD
70
0
0
ENDTAB
0
TABLE
2
VIEW
5
6
100
AcDbSymbolTable
70
0
0
ENDTAB
0
TABLE
2
UCS
5
7
100
AcDbSymbolTable
70
0
0
ENDTAB
0
TABLE
2
APPID
5
9
100
AcDbSymbolTable
70
2
0
APPID
5
12
100
AcDbSymbolTableRecord
100
AcDbRegAppTableRecord
2
ACAD
70
0
0
ENDTAB
0
TABLE
2
DIMSTYLE
5
A
100
AcDbSymbolTable
70
1
0
ENDTAB
0
TABLE
2
BLOCK_RECORD
5
1
100
AcDbSymbolTable
70
1
0
BLOCK_RECORD
5
1F
100
AcDbSymbolTableRecord
100
AcDbBlockTableRecord
2
*MODEL_SPACE
0
BLOCK_RECORD
5
1B
100
AcDbSymbolTableRecord
100
AcDbBlockTableRecord
2
*PAPER_SPACE
0
ENDTAB
0
ENDSEC
0
SECTION
2
BLOCKS
0
BLOCK
5
20
100
AcDbEntity
100
AcDbBlockBegin
2
*MODEL_SPACE
0
ENDBLK
5
21
100
AcDbEntity
100
AcDbBlockEnd
0
BLOCK
5
1C
100
AcDbEntity
100
AcDbBlockBegin
2
*PAPER_SPACE
0
ENDBLK
5
1D
100
AcDbEntity
100
AcDbBlockEnd
0
ENDSEC
0
SECTION
2
ENTITIES
0
LWPOLYLINE
5
100
100
AcDbEntity
8
0
100
AcDbPolyline
90
54
70
1
43
0.0
10
58.499474000000006
20
17.601745000000001
10
57.444803
20
20.686529
10
56.969932999999997
20
21.817807000000006
10
56.262918000000006
20
22.71894
10
55.351500999999999
20
23.431120999999997
10
54.263425000000005
20
23.995543999999999
10
51.668276000000006
20
24.845896
10
48.699422000000006
20
25.599549000000003
10
48.153770999999999
20
25.261085000000001
10
47.487196999999995
20
25.366004000000004
10
43.522709000000006
20
25.801399000000004
10
39.223359000000002
20
25.790310000000005
10
38.601925999999999
20
26.298433000000006
10
30.500000000000004
20
26.300000000000004
10
12.000000000000002
20
26.300000000000004
10
10.997104
20
26.300000000000004
10
8.8800159999999995
20
26.197373000000006
10
7.0872470000000014
20
25.968186000000003
10
5.5914490000000008
20
25.642201999999997
10
4.365272
20
25.235514999999999
10
3.3813680000000002
20
24.764218000000003
10
2.6123889999999999
20
24.244405
10
2.0309870000000001
20
23.692170000000004
10
1.3215140000000001
20
22.554811000000001
10
1.0341629999999999
20
21.480892000000004
10
0.85066900000000001
20
20.038376000000003
10
0.34525700000000004
20
19.56194
10
0
20
19.403264
10
0
20
6.8987700000000007
10
0.34525700000000004
20
6.7400940000000009
10
0.85066900000000001
20
6.2636570000000003
10
1.0341629999999999
20
4.8211410000000008
10
1.3215140000000001
20
3.7472220000000007
10
2.0309870000000001
20
2.6098630000000007
10
2.6123889999999999
20
2.0576279999999998
10
3.3813680000000002
20
1.5378160000000003
10
4.365272
20
1.066519
10
5.5914490000000008
20
0.65983100000000006
10
7.0872470000000014
20
0.33384799999999998
10
8.8800159999999995
20
0.10466099999999999
10
13.465859
20
0.0010560000000000083
10
38.601925999999999
20
0.0035560000000000001
10
39.223359000000002
20
0.51167899999999999
10
43.522710000000004
20
0.50059100000000001
10
47.487196999999995
20
0.93598400000000015
10
48.153770999999999
20
1.0409040000000001
10
48.699422000000006
20
0.70243900000000015
10
51.668276000000006
20
1.4560919999999999
10
54.263425000000005
20
2.3064439999999999
10
55.351500999999999
20
2.8708680000000002
10
56.262918000000006
20
3.5830490000000004
10
56.969932999999997
20
4.4841809999999995
10
57.444803
20
5.6154599999999997
10
58.499474000000006
20
8.5059389999999997
0
LINE
5
101
100
AcDbEntity
8
0
100
AcDbLine
10
53.015499000000005
20
8.2515990000000006
30
0
11
53.015499000000005
21
8.2515990000000006
31
0
0
LINE
5
102
100
AcDbEntity
8
0
100
AcDbLine
10
53.065497999999998
20
20.332000000000004
30
0
11
53.065497999999998
21
20.332000000000004
31
0
0
LINE
5
103
100
AcDbEntity
8
0
100
AcDbLine
10
31.311501
20
14.23
30
0
11
31.311501
21
14.23
31
0
0
LWPOLYLINE
5
104
100
AcDbEntity
8
0
100
AcDbPolyline
90
13
70
1
43
0.0
10
12.000000000000002
20
25.300000000000004
10
12.000000000000002
20
2.2999999999999998
10
28.5
20
2.2999999999999998
10
28.5
20
16.300000000000001
10
30.500000000000004
20
16.300000000000001
10
30.500000000000004
20
23.800000000000004
10
33.922584558610922
20
23.800000000000004
10
33.922584558610922
20
1.8000000000000016
10
45.922584558610929
20
1.8000000000000007
10
45.922584558610929
20
24.300000000000001
10
36
20
24.300000000000001
10
36
20
25.300000000000004
10
30.500000000000004
20
25.300000000000004
0
CIRCLE
5
105
100
AcDbEntity
8
0
100
AcDbCircle
10
31.311501
20
12.984123191037593
30
0
40
2.125
210
0
220
0
230
1
0
CIRCLE
5
106
100
AcDbEntity
8
0
100
AcDbCircle
10
53.065497999999998
20
19.067885027100822
30
0
40
2.125
210
0
220
0
230
1
0
CIRCLE
5
107
100
AcDbEntity
8
0
100
AcDbCircle
10
53.000000789761543
20
7.0000001043081284
30
0
40
2.125
210
0
220
0
230
1
0
ENDSEC
0
SECTION
2
OBJECTS
0
DICTIONARY
5
C
100
AcDbDictionary
3
ACAD_GROUP
350
D
3
ACAD_MLINESTYLE
350
17
0
DICTIONARY
5
D
100
AcDbDictionary
0
DICTIONARY
5
1A
330
C
100
AcDbDictionary
0
DICTIONARY
5
17
100
AcDbDictionary
0
ENDSEC
0
EOF
